# xmcd
#
# Track frame offsets:
#	150
#	15378
#	25304
#	34680
#	47844
#	60248
#	72668
#	84791
#	97816
#	108638
#	118723
#	134392
#	146113
#	159404
#
# Disc length: 2294 seconds
#
# Revision: 0
# Processed by: cddbd v1.5.2PL0 Copyright (c) Steve Scherf et al.
# Submitted via: EasyCDDAExtractor 16.0.6.1
#
DISCID=b408f40e
DTITLE=Varios - C-087 Exitos del Country
DYEAR=2001
DGENRE=Country
TTITLE0=Gene Watson - Love In The Hot Afternoon
TTITLE1=Merle Travis - Nine Pound Hammer
TTITLE2=Frankie Laine. - Rawhide
TTITLE3=Freddy Fender - Silver Wings
TTITLE4=Johnny Cash - Folsom Prison Blues
TTITLE5=Patsy Cline - Crazy
TTITLE6=Glen Campbell - It's Over
TTITLE7=Lynn Anderson - Rose Garden
TTITLE8=Johnny Cash - Cool Cool Heart
TTITLE9=Patsy Cline - Heartaches
TTITLE10=George Jones - He Stopped Loving Her Today
TTITLE11=Willie Nelson - Night Life
TTITLE12=Kenny Rogers - Ruby Don't Keep Your Love Away
TTITLE13=Mel Tillis - In The Middle Of The Night
EXTD=
EXTT0=
EXTT1=
EXTT2=
EXTT3=
EXTT4=
EXTT5=
EXTT6=
EXTT7=
EXTT8=
EXTT9=
EXTT10=
EXTT11=
EXTT12=
EXTT13=
PLAYORDER=
